<?xml version="1.0" encoding="UTF-8"?>
<svg xmlns="http://www.w3.org/2000/svg" version="1.1" viewBox="0 0 800 800">
  <!-- Generator: Adobe Illustrator 29.3.1, SVG Export Plug-In . SVG Version: 2.1.0 Build 151)  -->
  <defs>
    <style>
      .st0 {
        fill: #fff;
      }

      .st1 {
        fill: #fe8923;
      }
    </style>
  </defs>
  <g id="Layer_3">
    <rect class="st1" width="800" height="800"/>
  </g>
  <g id="Layer_1" focusable="false">
    <path class="st0" d="M311.4,671.7c-7.4,15-13.2,27.3-12.9,27.8.4.6,48.3,7.7,106.6,16.6,58.3,8.7,122.8,18.5,143.1,21.5,20.4,3,37.2,5.5,37.2,5.4.6-.6-24.1-50.3-24.9-50.3s-53.5-10.8-117.7-24c-64.1-13.2-116.9-24-117.2-24-.4,0-6.8,12.2-14.2,27h0ZM474.8,402.3c-15.6,4.5-16,4.8-15.6,8.6.1,2.2-.6,5.5-1.9,7.4q-2.3,3.5,11.9,13.7l14.3,10.3,4.8-8.3c7.6-13.4,8.4-17.5,5.2-27.6l-2.8-8.6-16,4.5h0ZM526,387.6c-14.1,4.1-15.7,4.8-15.1,7.4.3,1.7,2.2,8.7,4.1,15.6l3.3,12.5-5.5,10.8c-3.1,6-6.8,12.8-8.3,15.3l-2.8,4.5,5.5,3.7c2.9,2.1,9.7,6,15,8.9l9.5,5.4,11.2-20.9c6.4-11.8,11.2-22.5,11.2-24.9,0-4.5-10.5-43.1-11.6-42.8-.4,0-7.9,2.2-16.4,4.7h0ZM577.3,372.9c-8.4,2.5-15.4,4.5-15.6,4.6-.1,0,3.2,12.2,7.6,26.6,4.4,14.5,8,27.2,8,28.2s-5.4,11.9-11.9,24.4c-6.7,12.5-12.2,23.1-12.5,23.7-.6,1.1,7.1,4.8,22.5,10.6l9,3.5,14.5-27.5c8.7-16.1,14.7-29.1,14.7-31.6s-4.2-18.2-9.5-35.3c-5.2-17.2-9.5-31.3-9.5-31.6,0-.7-1.9,0-17.5,4.2h0ZM631.9,356.3c-8,2.7-14.7,5.2-14.8,5.2s4.9,17,11.2,37.7l11.3,37.5-16.6,30.8c-9.2,17-16.6,31.3-16.6,31.7,0,1.6,33.7,7.4,34.9,6.1.7-.6,8.4-14.7,17.3-31.1,11.3-21.2,16.1-31.6,16.1-34.9,0-6.8-24.9-88.6-26.8-88.4-.9,0-8.1,2.5-16.1,5.4h0ZM429,252.6c-71,11.8-124.1,55.4-141.8,116.5-7.9,27.1-7.9,57,.1,84.7,5.1,17.7,17.7,42.9,29.2,58,10.6,14.1,11.5,16.6,15.9,45.1,1.7,11.2,2.6,25.7,2.6,42.2v25c.1,0,7.4,1.6,7.4,1.6,4.1.9,51.2,10.8,104.7,22,53.7,11.2,99.1,20.8,101.1,21.2,3.2.9,2.9,0-2.9-6.4-8.9-9.9-17-24.1-19.1-33.5-3.5-15.1,2.8-25,19.3-31,5.1-1.8,12.9-4.5,17.6-6.1,4.5-1.6,8.3-3.3,8.3-3.9-.1-.6-11.1-6.3-24.4-12.8-37.7-18.5-75.1-42.3-117.2-75.1-25.7-19.9-31.4-25.6-31.4-31.1s5.8-12.1,11.5-12.1,8.7,3.5,23,14.8c57,45.8,119.6,83.6,158.8,96.3,8.9,2.9,16.6,5.3,17,5.3s.6-7.4.1-16.4l-.9-16.6,8.6-6.4c4.8-3.5,8.6-6.7,8.7-7.1,0-.6-5.7-1.9-12.7-3.4-60.2-12.2-130.2-48.1-181.5-92.9l-5.7-5.1,4.5-5.3c7-7.9,8.7-15.1,5.8-23.9-1.3-3.8-1.9-7.4-1.3-8,.6-.6,45.4-13.2,99.6-28.2,64.9-18,98.5-27.9,98.5-29.2,0-3.2-27.8-29.8-40.3-38.7-24.3-17.3-55.9-31-86-37.5-18.6-3.9-59.5-5.1-77.4-2.1h0ZM408.3,393.9c1.7,2.1,3.2,5.5,3.2,8,0,6.1-7,12.9-13.1,12.9s-13.1-6.8-13.1-11.9c.3-12.4,14.8-18.2,23-9h0ZM449.3,59.3c-5.2,1.1-16,5.3-24.1,9.3-8,3.9-15.7,7.3-17,7.3s-8.1-2.9-15.1-6.5c-22.1-11.3-38.4-13.4-53.5-6.7-6.5,2.9-16.6,11.2-20.9,17.5l-2.8,3.8h14.1c17.3,0,22,2.2,22,10.2s-3.2,8-24,8c-71.7,0-111.1,21.2-128.7,69.5-6.7,18.5-8.9,31-9.7,58.5-1,32.7,1.6,55.9,11.5,104,7.3,35.6,7.4,36.9,7.6,62.5.1,21.1-.3,27.8-2.3,34.3-3.3,10.8-10.6,21.2-18.3,26.8-6,4.1-7.1,4.3-20.4,4.3s-15-.6-21.5-3.9c-6.7-3.5-14.2-10.6-19.2-18-3.1-4.5-1,17.2,2.6,29.2,10.2,32.3,28.8,55.6,52.1,65,7.3,2.9,10.8,3.4,28.7,3.4s32.7-2.1,49.5-10c5.7-2.6,13.1-7.4,16.7-10.6l6.4-5.8-6-12.9c-7.7-16.7-14.4-37.8-17.3-54.8-3.6-20.5-2.2-56.7,2.9-75.2,8.4-30,24.4-57.9,47-81.5,13.7-14.4,24.7-23.3,40.3-32.3,5.7-3.4,10.6-6.3,11.1-6.5.4-.6-1.2-2.3-3.6-4.2-12.2-9.9-38.4-10.5-65.3-1.4-16.4,5.5-24.1,6.4-29.5,3.4-3.3-1.9-9.9-9.5-8.9-10.5.3-.6,3.2.6,6.3,1.4,3.2,1.1,7,2.1,8.3,2.2,1.5,0,8-5,14.5-10.9,6.7-6.1,15.6-13.4,19.9-16.3,8.9-6,22.4-10.6,30.5-10.6,14.3,0,31.9,9.6,47.9,26l9.7,9.9,9.9-2.3,9.9-2.3-.9-8c-1.7-15.6-7.1-27.5-16-35.3-10.5-9.3-35.8-16.6-52.2-14.8l-7.4.7,5.8-2.2c3.2-1.3,11.8-3.4,18.9-4.5,24-4.2,42.8,0,56.4,12.5,9.5,8.6,15.3,19.9,18.2,35.6l2.2,11.6h27.1c26.6,0,49.5,2.5,71.4,7.3l9.5,2.1,8.1-8.7c14.7-15.6,21.2-32,22.7-56,1-17.3-1-31.8-6.7-48.4-5.8-16.9-12.2-26.9-25.6-40.3-13.1-13.2-26.3-21.1-41.6-24.7-11.5-2.6-37.8-2.6-50.7,0v.3Z"/>
  </g>
</svg>